<mxfile host="app.diagrams.net" agent="Mozilla/5.0 (Macintosh; Intel Mac OS X 10_15_7) AppleWebKit/605.1.15 (KHTML, like Gecko) Version/17.6 Safari/605.1.15" version="26.2.15" pages="3">
  <diagram name="Page-1" id="0RaLpIVcwhTuMIvod4cI">
    <mxGraphModel dx="1148" dy="789" grid="1" gridSize="10" guides="1" tooltips="1" connect="1" arrows="1" fold="1" page="1" pageScale="1" pageWidth="850" pageHeight="1100" math="0" shadow="0">
      <root>
        <mxCell id="0" />
        <mxCell id="1" parent="0" />
        <mxCell id="2" value="House Feature" style="whiteSpace=wrap;strokeWidth=2;" parent="1" vertex="1">
          <mxGeometry x="8" y="188" width="163" height="54" as="geometry" />
        </mxCell>
        <mxCell id="3" value="Raw Features" style="whiteSpace=wrap;strokeWidth=2;strokeColor=#009900;" parent="1" vertex="1">
          <mxGeometry x="260" y="20" width="156" height="54" as="geometry" />
        </mxCell>
        <mxCell id="4" value="Geo-Spatial Features" style="whiteSpace=wrap;strokeWidth=2;" parent="1" vertex="1">
          <mxGeometry x="221" y="124" width="210" height="54" as="geometry" />
        </mxCell>
        <mxCell id="5" value="Textual Description" style="whiteSpace=wrap;strokeWidth=2;" parent="1" vertex="1">
          <mxGeometry x="227" y="252" width="198" height="54" as="geometry" />
        </mxCell>
        <mxCell id="6" value="Listing Images" style="whiteSpace=wrap;strokeWidth=2;" parent="1" vertex="1">
          <mxGeometry x="248" y="380" width="156" height="54" as="geometry" />
        </mxCell>
        <mxCell id="7" value="Raw Features" style="whiteSpace=wrap;strokeWidth=2;" parent="1" vertex="1">
          <mxGeometry x="820" y="20" width="156" height="54" as="geometry" />
        </mxCell>
        <mxCell id="8" value="Coordinate KNN Regression Model" style="whiteSpace=wrap;strokeWidth=2;" parent="1" vertex="1">
          <mxGeometry x="481" y="112" width="260" height="78" as="geometry" />
        </mxCell>
        <mxCell id="9" value="Geo-Spatial Embeddings" style="whiteSpace=wrap;strokeWidth=2;" parent="1" vertex="1">
          <mxGeometry x="791" y="124" width="233" height="54" as="geometry" />
        </mxCell>
        <mxCell id="10" value="Pretrained DistillBERT Text Embedding Model" style="whiteSpace=wrap;strokeWidth=2;" parent="1" vertex="1">
          <mxGeometry x="481" y="240" width="260" height="78" as="geometry" />
        </mxCell>
        <mxCell id="11" value="Textual Embeddings" style="whiteSpace=wrap;strokeWidth=2;" parent="1" vertex="1">
          <mxGeometry x="807" y="252" width="202" height="54" as="geometry" />
        </mxCell>
        <mxCell id="12" value="Modified Pretrained ResNet18 Model" style="whiteSpace=wrap;strokeWidth=2;" parent="1" vertex="1">
          <mxGeometry x="481" y="368" width="260" height="78" as="geometry" />
        </mxCell>
        <mxCell id="13" value="Image Embeddings" style="whiteSpace=wrap;strokeWidth=2;" parent="1" vertex="1">
          <mxGeometry x="811" y="380" width="193" height="54" as="geometry" />
        </mxCell>
        <mxCell id="14" value="Combined Features" style="whiteSpace=wrap;strokeWidth=2;" parent="1" vertex="1">
          <mxGeometry x="1074" y="188" width="198" height="54" as="geometry" />
        </mxCell>
        <mxCell id="15" value="Downstream Regression Model" style="whiteSpace=wrap;strokeWidth=2;" parent="1" vertex="1">
          <mxGeometry x="1322" y="176" width="260" height="78" as="geometry" />
        </mxCell>
        <mxCell id="16" value="Price" style="whiteSpace=wrap;strokeWidth=2;" parent="1" vertex="1">
          <mxGeometry x="1632" y="188" width="96" height="54" as="geometry" />
        </mxCell>
        <mxCell id="17" value="" style="curved=1;startArrow=none;endArrow=block;exitX=0.6;exitY=0;entryX=0;entryY=0.5;" parent="1" source="2" target="3" edge="1">
          <mxGeometry relative="1" as="geometry">
            <Array as="points">
              <mxPoint x="196" y="35" />
            </Array>
          </mxGeometry>
        </mxCell>
        <mxCell id="18" value="" style="curved=1;startArrow=none;endArrow=block;exitX=0.78;exitY=0;entryX=0;entryY=0.5;" parent="1" source="2" target="4" edge="1">
          <mxGeometry relative="1" as="geometry">
            <Array as="points">
              <mxPoint x="196" y="151" />
            </Array>
          </mxGeometry>
        </mxCell>
        <mxCell id="19" value="" style="curved=1;startArrow=none;endArrow=block;exitX=0.78;exitY=1;entryX=0;entryY=0.5;" parent="1" source="2" target="5" edge="1">
          <mxGeometry relative="1" as="geometry">
            <Array as="points">
              <mxPoint x="196" y="279" />
            </Array>
          </mxGeometry>
        </mxCell>
        <mxCell id="20" value="" style="curved=1;startArrow=none;endArrow=block;exitX=0.59;exitY=1;entryX=0;entryY=0.5;" parent="1" source="2" target="6" edge="1">
          <mxGeometry relative="1" as="geometry">
            <Array as="points">
              <mxPoint x="196" y="407" />
            </Array>
          </mxGeometry>
        </mxCell>
        <mxCell id="21" value="" style="curved=1;startArrow=none;endArrow=block;exitX=1;exitY=0.5;entryX=0;entryY=0.5;" parent="1" source="3" target="7" edge="1">
          <mxGeometry relative="1" as="geometry">
            <Array as="points" />
          </mxGeometry>
        </mxCell>
        <mxCell id="22" value="" style="curved=1;startArrow=none;endArrow=block;exitX=1;exitY=0.5;entryX=0;entryY=0.5;" parent="1" source="4" target="8" edge="1">
          <mxGeometry relative="1" as="geometry">
            <Array as="points" />
          </mxGeometry>
        </mxCell>
        <mxCell id="23" value="" style="curved=1;startArrow=none;endArrow=block;exitX=1;exitY=0.5;entryX=0;entryY=0.5;" parent="1" source="8" target="9" edge="1">
          <mxGeometry relative="1" as="geometry">
            <Array as="points" />
          </mxGeometry>
        </mxCell>
        <mxCell id="24" value="" style="curved=1;startArrow=none;endArrow=block;exitX=1;exitY=0.5;entryX=0;entryY=0.5;" parent="1" source="5" target="10" edge="1">
          <mxGeometry relative="1" as="geometry">
            <Array as="points" />
          </mxGeometry>
        </mxCell>
        <mxCell id="25" value="" style="curved=1;startArrow=none;endArrow=block;exitX=1;exitY=0.5;entryX=0;entryY=0.5;" parent="1" source="10" target="11" edge="1">
          <mxGeometry relative="1" as="geometry">
            <Array as="points" />
          </mxGeometry>
        </mxCell>
        <mxCell id="26" value="" style="curved=1;startArrow=none;endArrow=block;exitX=1;exitY=0.5;entryX=0;entryY=0.5;" parent="1" source="6" target="12" edge="1">
          <mxGeometry relative="1" as="geometry">
            <Array as="points" />
          </mxGeometry>
        </mxCell>
        <mxCell id="27" value="" style="curved=1;startArrow=none;endArrow=block;exitX=1;exitY=0.5;entryX=0;entryY=0.5;" parent="1" source="12" target="13" edge="1">
          <mxGeometry relative="1" as="geometry">
            <Array as="points" />
          </mxGeometry>
        </mxCell>
        <mxCell id="28" value="" style="curved=1;startArrow=none;endArrow=block;exitX=1;exitY=0.5;entryX=0.41;entryY=0;" parent="1" source="7" target="14" edge="1">
          <mxGeometry relative="1" as="geometry">
            <Array as="points">
              <mxPoint x="1049" y="35" />
            </Array>
          </mxGeometry>
        </mxCell>
        <mxCell id="29" value="" style="curved=1;startArrow=none;endArrow=block;exitX=1;exitY=0.5;entryX=0.24;entryY=0;" parent="1" source="9" target="14" edge="1">
          <mxGeometry relative="1" as="geometry">
            <Array as="points">
              <mxPoint x="1049" y="151" />
            </Array>
          </mxGeometry>
        </mxCell>
        <mxCell id="30" value="" style="curved=1;startArrow=none;endArrow=block;exitX=1;exitY=0.5;entryX=0.24;entryY=1;" parent="1" source="11" target="14" edge="1">
          <mxGeometry relative="1" as="geometry">
            <Array as="points">
              <mxPoint x="1049" y="279" />
            </Array>
          </mxGeometry>
        </mxCell>
        <mxCell id="31" value="" style="curved=1;startArrow=none;endArrow=block;exitX=1;exitY=0.5;entryX=0.41;entryY=1;" parent="1" source="13" target="14" edge="1">
          <mxGeometry relative="1" as="geometry">
            <Array as="points">
              <mxPoint x="1049" y="407" />
            </Array>
          </mxGeometry>
        </mxCell>
        <mxCell id="32" value="" style="curved=1;startArrow=none;endArrow=block;exitX=1;exitY=0.5;entryX=0;entryY=0.5;" parent="1" source="14" target="15" edge="1">
          <mxGeometry relative="1" as="geometry">
            <Array as="points" />
          </mxGeometry>
        </mxCell>
        <mxCell id="33" value="" style="curved=1;startArrow=none;endArrow=block;exitX=1;exitY=0.5;entryX=0.01;entryY=0.5;" parent="1" source="15" target="16" edge="1">
          <mxGeometry relative="1" as="geometry">
            <Array as="points" />
          </mxGeometry>
        </mxCell>
        <mxCell id="ZwVKFWFzcGPZL4ra_HJD-40" style="edgeStyle=orthogonalEdgeStyle;rounded=0;orthogonalLoop=1;jettySize=auto;html=1;exitX=1;exitY=0.5;exitDx=0;exitDy=0;entryX=0;entryY=0.5;entryDx=0;entryDy=0;" edge="1" parent="1" source="ZwVKFWFzcGPZL4ra_HJD-34" target="ZwVKFWFzcGPZL4ra_HJD-37">
          <mxGeometry relative="1" as="geometry">
            <Array as="points">
              <mxPoint x="360" y="700" />
              <mxPoint x="360" y="740" />
            </Array>
          </mxGeometry>
        </mxCell>
        <mxCell id="ZwVKFWFzcGPZL4ra_HJD-41" style="edgeStyle=orthogonalEdgeStyle;rounded=0;orthogonalLoop=1;jettySize=auto;html=1;exitX=1;exitY=0.5;exitDx=0;exitDy=0;entryX=0;entryY=0.5;entryDx=0;entryDy=0;" edge="1" parent="1" source="ZwVKFWFzcGPZL4ra_HJD-34" target="ZwVKFWFzcGPZL4ra_HJD-36">
          <mxGeometry relative="1" as="geometry">
            <Array as="points">
              <mxPoint x="360" y="700" />
              <mxPoint x="360" y="660" />
            </Array>
          </mxGeometry>
        </mxCell>
        <mxCell id="ZwVKFWFzcGPZL4ra_HJD-44" style="edgeStyle=orthogonalEdgeStyle;rounded=0;orthogonalLoop=1;jettySize=auto;html=1;exitX=1;exitY=0.5;exitDx=0;exitDy=0;entryX=0;entryY=0.5;entryDx=0;entryDy=0;" edge="1" parent="1" source="ZwVKFWFzcGPZL4ra_HJD-34" target="ZwVKFWFzcGPZL4ra_HJD-35">
          <mxGeometry relative="1" as="geometry">
            <Array as="points">
              <mxPoint x="360" y="700" />
              <mxPoint x="360" y="580" />
            </Array>
          </mxGeometry>
        </mxCell>
        <mxCell id="ZwVKFWFzcGPZL4ra_HJD-45" style="edgeStyle=orthogonalEdgeStyle;rounded=0;orthogonalLoop=1;jettySize=auto;html=1;exitX=1;exitY=0.5;exitDx=0;exitDy=0;entryX=0;entryY=0.5;entryDx=0;entryDy=0;" edge="1" parent="1" source="ZwVKFWFzcGPZL4ra_HJD-34" target="ZwVKFWFzcGPZL4ra_HJD-38">
          <mxGeometry relative="1" as="geometry">
            <Array as="points">
              <mxPoint x="360" y="700" />
              <mxPoint x="360" y="820" />
            </Array>
          </mxGeometry>
        </mxCell>
        <mxCell id="ZwVKFWFzcGPZL4ra_HJD-34" value="House Features" style="ellipse;whiteSpace=wrap;html=1;fillColor=#B3B3B3;strokeColor=#000000;shadow=1;" vertex="1" parent="1">
          <mxGeometry x="221" y="670" width="109" height="60" as="geometry" />
        </mxCell>
        <mxCell id="ZwVKFWFzcGPZL4ra_HJD-35" value="Raw Features" style="rounded=1;whiteSpace=wrap;html=1;strokeColor=#00CC00;" vertex="1" parent="1">
          <mxGeometry x="400" y="560" width="140" height="40" as="geometry" />
        </mxCell>
        <mxCell id="ZwVKFWFzcGPZL4ra_HJD-58" style="edgeStyle=orthogonalEdgeStyle;rounded=0;orthogonalLoop=1;jettySize=auto;html=1;exitX=1;exitY=0.5;exitDx=0;exitDy=0;entryX=0;entryY=0.5;entryDx=0;entryDy=0;" edge="1" parent="1" source="ZwVKFWFzcGPZL4ra_HJD-36" target="ZwVKFWFzcGPZL4ra_HJD-46">
          <mxGeometry relative="1" as="geometry" />
        </mxCell>
        <mxCell id="ZwVKFWFzcGPZL4ra_HJD-36" value="Geo-Spatial Features" style="rounded=1;whiteSpace=wrap;html=1;strokeColor=#0000CC;" vertex="1" parent="1">
          <mxGeometry x="400" y="640" width="140" height="40" as="geometry" />
        </mxCell>
        <mxCell id="ZwVKFWFzcGPZL4ra_HJD-56" style="edgeStyle=orthogonalEdgeStyle;rounded=0;orthogonalLoop=1;jettySize=auto;html=1;exitX=1;exitY=0.5;exitDx=0;exitDy=0;entryX=0;entryY=0.5;entryDx=0;entryDy=0;" edge="1" parent="1" source="ZwVKFWFzcGPZL4ra_HJD-37" target="ZwVKFWFzcGPZL4ra_HJD-47">
          <mxGeometry relative="1" as="geometry" />
        </mxCell>
        <mxCell id="ZwVKFWFzcGPZL4ra_HJD-37" value="Textual Description" style="rounded=1;whiteSpace=wrap;html=1;strokeColor=#CC0066;" vertex="1" parent="1">
          <mxGeometry x="400" y="720" width="140" height="40" as="geometry" />
        </mxCell>
        <mxCell id="ZwVKFWFzcGPZL4ra_HJD-53" style="edgeStyle=orthogonalEdgeStyle;rounded=0;orthogonalLoop=1;jettySize=auto;html=1;exitX=1;exitY=0.5;exitDx=0;exitDy=0;entryX=0;entryY=0.5;entryDx=0;entryDy=0;" edge="1" parent="1" source="ZwVKFWFzcGPZL4ra_HJD-38" target="ZwVKFWFzcGPZL4ra_HJD-48">
          <mxGeometry relative="1" as="geometry" />
        </mxCell>
        <mxCell id="ZwVKFWFzcGPZL4ra_HJD-38" value="Listing Images" style="rounded=1;whiteSpace=wrap;html=1;strokeColor=#FFD966;" vertex="1" parent="1">
          <mxGeometry x="400" y="800" width="140" height="40" as="geometry" />
        </mxCell>
        <mxCell id="ZwVKFWFzcGPZL4ra_HJD-59" style="edgeStyle=orthogonalEdgeStyle;rounded=0;orthogonalLoop=1;jettySize=auto;html=1;exitX=1;exitY=0.5;exitDx=0;exitDy=0;entryX=0;entryY=0.5;entryDx=0;entryDy=0;" edge="1" parent="1" source="ZwVKFWFzcGPZL4ra_HJD-46" target="ZwVKFWFzcGPZL4ra_HJD-50">
          <mxGeometry relative="1" as="geometry" />
        </mxCell>
        <mxCell id="ZwVKFWFzcGPZL4ra_HJD-46" value="" style="rounded=1;whiteSpace=wrap;html=1;strokeColor=#0000CC;fillColor=#0000CC;" vertex="1" parent="1">
          <mxGeometry x="580" y="640" width="10" height="40" as="geometry" />
        </mxCell>
        <mxCell id="ZwVKFWFzcGPZL4ra_HJD-57" style="edgeStyle=orthogonalEdgeStyle;rounded=0;orthogonalLoop=1;jettySize=auto;html=1;exitX=1;exitY=0.5;exitDx=0;exitDy=0;entryX=0;entryY=0.5;entryDx=0;entryDy=0;" edge="1" parent="1" source="ZwVKFWFzcGPZL4ra_HJD-47" target="ZwVKFWFzcGPZL4ra_HJD-51">
          <mxGeometry relative="1" as="geometry" />
        </mxCell>
        <mxCell id="ZwVKFWFzcGPZL4ra_HJD-47" value="" style="rounded=1;whiteSpace=wrap;html=1;fillColor=#CC0066;strokeColor=#CC0066;" vertex="1" parent="1">
          <mxGeometry x="580" y="720" width="10" height="40" as="geometry" />
        </mxCell>
        <mxCell id="ZwVKFWFzcGPZL4ra_HJD-55" style="edgeStyle=orthogonalEdgeStyle;rounded=0;orthogonalLoop=1;jettySize=auto;html=1;exitX=1;exitY=0.5;exitDx=0;exitDy=0;entryX=0;entryY=0.5;entryDx=0;entryDy=0;" edge="1" parent="1" source="ZwVKFWFzcGPZL4ra_HJD-48" target="ZwVKFWFzcGPZL4ra_HJD-52">
          <mxGeometry relative="1" as="geometry" />
        </mxCell>
        <mxCell id="ZwVKFWFzcGPZL4ra_HJD-48" value="" style="rounded=1;whiteSpace=wrap;html=1;fillColor=#FFD966;strokeColor=#FFD966;" vertex="1" parent="1">
          <mxGeometry x="580" y="800" width="10" height="40" as="geometry" />
        </mxCell>
        <mxCell id="ZwVKFWFzcGPZL4ra_HJD-50" value="Coordinate KNN Regression Model" style="rounded=1;whiteSpace=wrap;html=1;strokeColor=#0000CC;" vertex="1" parent="1">
          <mxGeometry x="630" y="630" width="120" height="60" as="geometry" />
        </mxCell>
        <mxCell id="ZwVKFWFzcGPZL4ra_HJD-51" value="Fine-tuned DistilBERT Regression Model" style="rounded=1;whiteSpace=wrap;html=1;strokeColor=#CC0066;" vertex="1" parent="1">
          <mxGeometry x="630" y="710" width="120" height="60" as="geometry" />
        </mxCell>
        <mxCell id="ZwVKFWFzcGPZL4ra_HJD-52" value="Modified Pretrained ResNet18 Model" style="rounded=1;whiteSpace=wrap;html=1;strokeColor=#FFD966;" vertex="1" parent="1">
          <mxGeometry x="630" y="790" width="120" height="60" as="geometry" />
        </mxCell>
        <mxCell id="ZwVKFWFzcGPZL4ra_HJD-60" style="edgeStyle=orthogonalEdgeStyle;rounded=0;orthogonalLoop=1;jettySize=auto;html=1;exitX=1;exitY=0.5;exitDx=0;exitDy=0;entryX=0;entryY=0.5;entryDx=0;entryDy=0;" edge="1" parent="1" target="ZwVKFWFzcGPZL4ra_HJD-64">
          <mxGeometry relative="1" as="geometry">
            <mxPoint x="750" y="660" as="sourcePoint" />
          </mxGeometry>
        </mxCell>
        <mxCell id="ZwVKFWFzcGPZL4ra_HJD-61" style="edgeStyle=orthogonalEdgeStyle;rounded=0;orthogonalLoop=1;jettySize=auto;html=1;exitX=1;exitY=0.5;exitDx=0;exitDy=0;entryX=0;entryY=0.5;entryDx=0;entryDy=0;" edge="1" parent="1" target="ZwVKFWFzcGPZL4ra_HJD-66">
          <mxGeometry relative="1" as="geometry">
            <mxPoint x="750" y="740" as="sourcePoint" />
          </mxGeometry>
        </mxCell>
        <mxCell id="ZwVKFWFzcGPZL4ra_HJD-62" style="edgeStyle=orthogonalEdgeStyle;rounded=0;orthogonalLoop=1;jettySize=auto;html=1;exitX=1;exitY=0.5;exitDx=0;exitDy=0;entryX=0;entryY=0.5;entryDx=0;entryDy=0;" edge="1" parent="1" target="ZwVKFWFzcGPZL4ra_HJD-68">
          <mxGeometry relative="1" as="geometry">
            <mxPoint x="750" y="820" as="sourcePoint" />
          </mxGeometry>
        </mxCell>
        <mxCell id="ZwVKFWFzcGPZL4ra_HJD-63" style="edgeStyle=orthogonalEdgeStyle;rounded=0;orthogonalLoop=1;jettySize=auto;html=1;exitX=1;exitY=0.5;exitDx=0;exitDy=0;entryX=0;entryY=0.5;entryDx=0;entryDy=0;" edge="1" parent="1" source="ZwVKFWFzcGPZL4ra_HJD-64">
          <mxGeometry relative="1" as="geometry">
            <mxPoint x="840" y="660" as="targetPoint" />
          </mxGeometry>
        </mxCell>
        <mxCell id="ZwVKFWFzcGPZL4ra_HJD-64" value="" style="rounded=1;whiteSpace=wrap;html=1;strokeColor=#0000CC;fillColor=#0000CC;" vertex="1" parent="1">
          <mxGeometry x="790" y="640" width="10" height="40" as="geometry" />
        </mxCell>
        <mxCell id="ZwVKFWFzcGPZL4ra_HJD-65" style="edgeStyle=orthogonalEdgeStyle;rounded=0;orthogonalLoop=1;jettySize=auto;html=1;exitX=1;exitY=0.5;exitDx=0;exitDy=0;entryX=0;entryY=0.5;entryDx=0;entryDy=0;" edge="1" parent="1" source="ZwVKFWFzcGPZL4ra_HJD-66">
          <mxGeometry relative="1" as="geometry">
            <mxPoint x="840" y="740" as="targetPoint" />
          </mxGeometry>
        </mxCell>
        <mxCell id="ZwVKFWFzcGPZL4ra_HJD-66" value="" style="rounded=1;whiteSpace=wrap;html=1;fillColor=#CC0066;strokeColor=#CC0066;" vertex="1" parent="1">
          <mxGeometry x="790" y="720" width="10" height="40" as="geometry" />
        </mxCell>
        <mxCell id="ZwVKFWFzcGPZL4ra_HJD-67" style="edgeStyle=orthogonalEdgeStyle;rounded=0;orthogonalLoop=1;jettySize=auto;html=1;exitX=1;exitY=0.5;exitDx=0;exitDy=0;entryX=0;entryY=0.5;entryDx=0;entryDy=0;" edge="1" parent="1" source="ZwVKFWFzcGPZL4ra_HJD-68">
          <mxGeometry relative="1" as="geometry">
            <mxPoint x="840" y="820" as="targetPoint" />
          </mxGeometry>
        </mxCell>
        <mxCell id="ZwVKFWFzcGPZL4ra_HJD-68" value="" style="rounded=1;whiteSpace=wrap;html=1;fillColor=#FFD966;strokeColor=#FFD966;" vertex="1" parent="1">
          <mxGeometry x="790" y="800" width="10" height="40" as="geometry" />
        </mxCell>
        <mxCell id="ZwVKFWFzcGPZL4ra_HJD-69" value="Image Embedding" style="rounded=0;whiteSpace=wrap;html=1;rotation=-90;strokeColor=#FFD966;" vertex="1" parent="1">
          <mxGeometry x="821" y="810.5" width="79" height="39.5" as="geometry" />
        </mxCell>
        <mxCell id="ZwVKFWFzcGPZL4ra_HJD-78" style="edgeStyle=orthogonalEdgeStyle;rounded=0;orthogonalLoop=1;jettySize=auto;html=1;exitX=1;exitY=1;exitDx=0;exitDy=0;" edge="1" parent="1" source="ZwVKFWFzcGPZL4ra_HJD-74">
          <mxGeometry relative="1" as="geometry">
            <mxPoint x="920" y="709.8235294117646" as="targetPoint" />
          </mxGeometry>
        </mxCell>
        <mxCell id="ZwVKFWFzcGPZL4ra_HJD-74" value="Textual Embedding" style="rounded=0;whiteSpace=wrap;html=1;rotation=-90;strokeColor=#CC0066;" vertex="1" parent="1">
          <mxGeometry x="821" y="730" width="79" height="39.5" as="geometry" />
        </mxCell>
        <mxCell id="ZwVKFWFzcGPZL4ra_HJD-75" value="GSNE Embedding" style="rounded=0;whiteSpace=wrap;html=1;rotation=-90;strokeColor=#0000CC;" vertex="1" parent="1">
          <mxGeometry x="821" y="650.5" width="79" height="39.5" as="geometry" />
        </mxCell>
        <mxCell id="ZwVKFWFzcGPZL4ra_HJD-76" value="Raw&lt;div&gt;&amp;nbsp;Features&lt;/div&gt;" style="rounded=0;whiteSpace=wrap;html=1;rotation=-90;strokeColor=#00CC00;" vertex="1" parent="1">
          <mxGeometry x="821" y="570" width="79" height="39.5" as="geometry" />
        </mxCell>
        <mxCell id="ZwVKFWFzcGPZL4ra_HJD-81" style="edgeStyle=orthogonalEdgeStyle;rounded=0;orthogonalLoop=1;jettySize=auto;html=1;exitX=1;exitY=0.5;exitDx=0;exitDy=0;" edge="1" parent="1" source="ZwVKFWFzcGPZL4ra_HJD-77">
          <mxGeometry relative="1" as="geometry">
            <mxPoint x="1070" y="709.8235294117646" as="targetPoint" />
          </mxGeometry>
        </mxCell>
        <mxCell id="ZwVKFWFzcGPZL4ra_HJD-77" value="Downstream Regression Model" style="rounded=1;whiteSpace=wrap;html=1;" vertex="1" parent="1">
          <mxGeometry x="920" y="680" width="120" height="60" as="geometry" />
        </mxCell>
        <mxCell id="ZwVKFWFzcGPZL4ra_HJD-79" value="Price" style="rounded=1;whiteSpace=wrap;html=1;" vertex="1" parent="1">
          <mxGeometry x="1074" y="695" width="56" height="30" as="geometry" />
        </mxCell>
      </root>
    </mxGraphModel>
  </diagram>
  <diagram id="jVDK9ZJM0Jnd0u68u4Fu" name="Model">
    <mxGraphModel dx="951" dy="572" grid="1" gridSize="10" guides="1" tooltips="1" connect="1" arrows="1" fold="1" page="1" pageScale="1" pageWidth="850" pageHeight="1100" math="0" shadow="0">
      <root>
        <mxCell id="0" />
        <mxCell id="1" parent="0" />
        <mxCell id="sqEDO2N8_h3xxqRRrdPc-1" style="edgeStyle=orthogonalEdgeStyle;rounded=0;orthogonalLoop=1;jettySize=auto;html=1;exitX=1;exitY=0.5;exitDx=0;exitDy=0;entryX=0;entryY=0.5;entryDx=0;entryDy=0;" edge="1" parent="1" source="sqEDO2N8_h3xxqRRrdPc-5" target="sqEDO2N8_h3xxqRRrdPc-10">
          <mxGeometry relative="1" as="geometry">
            <Array as="points">
              <mxPoint x="360" y="700" />
              <mxPoint x="360" y="740" />
            </Array>
          </mxGeometry>
        </mxCell>
        <mxCell id="sqEDO2N8_h3xxqRRrdPc-2" style="edgeStyle=orthogonalEdgeStyle;rounded=0;orthogonalLoop=1;jettySize=auto;html=1;exitX=1;exitY=0.5;exitDx=0;exitDy=0;entryX=0;entryY=0.5;entryDx=0;entryDy=0;" edge="1" parent="1" source="sqEDO2N8_h3xxqRRrdPc-5" target="sqEDO2N8_h3xxqRRrdPc-8">
          <mxGeometry relative="1" as="geometry">
            <Array as="points">
              <mxPoint x="360" y="700" />
              <mxPoint x="360" y="660" />
            </Array>
          </mxGeometry>
        </mxCell>
        <mxCell id="sqEDO2N8_h3xxqRRrdPc-3" style="edgeStyle=orthogonalEdgeStyle;rounded=0;orthogonalLoop=1;jettySize=auto;html=1;exitX=1;exitY=0.5;exitDx=0;exitDy=0;entryX=0;entryY=0.5;entryDx=0;entryDy=0;" edge="1" parent="1" source="sqEDO2N8_h3xxqRRrdPc-5" target="sqEDO2N8_h3xxqRRrdPc-6">
          <mxGeometry relative="1" as="geometry">
            <Array as="points">
              <mxPoint x="360" y="700" />
              <mxPoint x="360" y="580" />
            </Array>
          </mxGeometry>
        </mxCell>
        <mxCell id="sqEDO2N8_h3xxqRRrdPc-4" style="edgeStyle=orthogonalEdgeStyle;rounded=0;orthogonalLoop=1;jettySize=auto;html=1;exitX=1;exitY=0.5;exitDx=0;exitDy=0;entryX=0;entryY=0.5;entryDx=0;entryDy=0;" edge="1" parent="1" source="sqEDO2N8_h3xxqRRrdPc-5" target="sqEDO2N8_h3xxqRRrdPc-12">
          <mxGeometry relative="1" as="geometry">
            <Array as="points">
              <mxPoint x="360" y="700" />
              <mxPoint x="360" y="820" />
            </Array>
          </mxGeometry>
        </mxCell>
        <mxCell id="sqEDO2N8_h3xxqRRrdPc-5" value="House Features" style="ellipse;whiteSpace=wrap;html=1;fillColor=#B3B3B3;strokeColor=#000000;shadow=1;" vertex="1" parent="1">
          <mxGeometry x="221" y="670" width="109" height="60" as="geometry" />
        </mxCell>
        <mxCell id="sqEDO2N8_h3xxqRRrdPc-42" style="edgeStyle=orthogonalEdgeStyle;rounded=0;orthogonalLoop=1;jettySize=auto;html=1;exitX=1;exitY=0.5;exitDx=0;exitDy=0;entryX=0;entryY=0.5;entryDx=0;entryDy=0;" edge="1" parent="1" source="sqEDO2N8_h3xxqRRrdPc-6" target="sqEDO2N8_h3xxqRRrdPc-40">
          <mxGeometry relative="1" as="geometry" />
        </mxCell>
        <mxCell id="sqEDO2N8_h3xxqRRrdPc-6" value="Raw Features" style="rounded=1;whiteSpace=wrap;html=1;strokeColor=#00CC00;" vertex="1" parent="1">
          <mxGeometry x="400" y="560" width="140" height="40" as="geometry" />
        </mxCell>
        <mxCell id="sqEDO2N8_h3xxqRRrdPc-7" style="edgeStyle=orthogonalEdgeStyle;rounded=0;orthogonalLoop=1;jettySize=auto;html=1;exitX=1;exitY=0.5;exitDx=0;exitDy=0;entryX=0;entryY=0.5;entryDx=0;entryDy=0;" edge="1" parent="1" source="sqEDO2N8_h3xxqRRrdPc-8" target="sqEDO2N8_h3xxqRRrdPc-14">
          <mxGeometry relative="1" as="geometry" />
        </mxCell>
        <mxCell id="sqEDO2N8_h3xxqRRrdPc-8" value="Geo-Spatial Features" style="rounded=1;whiteSpace=wrap;html=1;strokeColor=#0000CC;" vertex="1" parent="1">
          <mxGeometry x="400" y="640" width="140" height="40" as="geometry" />
        </mxCell>
        <mxCell id="sqEDO2N8_h3xxqRRrdPc-9" style="edgeStyle=orthogonalEdgeStyle;rounded=0;orthogonalLoop=1;jettySize=auto;html=1;exitX=1;exitY=0.5;exitDx=0;exitDy=0;entryX=0;entryY=0.5;entryDx=0;entryDy=0;" edge="1" parent="1" source="sqEDO2N8_h3xxqRRrdPc-10" target="sqEDO2N8_h3xxqRRrdPc-16">
          <mxGeometry relative="1" as="geometry" />
        </mxCell>
        <mxCell id="sqEDO2N8_h3xxqRRrdPc-10" value="Textual Description" style="rounded=1;whiteSpace=wrap;html=1;strokeColor=#CC0066;" vertex="1" parent="1">
          <mxGeometry x="400" y="720" width="140" height="40" as="geometry" />
        </mxCell>
        <mxCell id="sqEDO2N8_h3xxqRRrdPc-11" style="edgeStyle=orthogonalEdgeStyle;rounded=0;orthogonalLoop=1;jettySize=auto;html=1;exitX=1;exitY=0.5;exitDx=0;exitDy=0;entryX=0;entryY=0.5;entryDx=0;entryDy=0;" edge="1" parent="1" source="sqEDO2N8_h3xxqRRrdPc-12" target="sqEDO2N8_h3xxqRRrdPc-18">
          <mxGeometry relative="1" as="geometry" />
        </mxCell>
        <mxCell id="sqEDO2N8_h3xxqRRrdPc-12" value="Listing Images" style="rounded=1;whiteSpace=wrap;html=1;strokeColor=#FFD966;" vertex="1" parent="1">
          <mxGeometry x="400" y="800" width="140" height="40" as="geometry" />
        </mxCell>
        <mxCell id="sqEDO2N8_h3xxqRRrdPc-13" style="edgeStyle=orthogonalEdgeStyle;rounded=0;orthogonalLoop=1;jettySize=auto;html=1;exitX=1;exitY=0.5;exitDx=0;exitDy=0;entryX=0;entryY=0.5;entryDx=0;entryDy=0;" edge="1" parent="1" source="sqEDO2N8_h3xxqRRrdPc-14" target="sqEDO2N8_h3xxqRRrdPc-19">
          <mxGeometry relative="1" as="geometry" />
        </mxCell>
        <mxCell id="sqEDO2N8_h3xxqRRrdPc-14" value="" style="rounded=1;whiteSpace=wrap;html=1;strokeColor=#0000CC;fillColor=#0000CC;" vertex="1" parent="1">
          <mxGeometry x="580" y="640" width="10" height="40" as="geometry" />
        </mxCell>
        <mxCell id="sqEDO2N8_h3xxqRRrdPc-15" style="edgeStyle=orthogonalEdgeStyle;rounded=0;orthogonalLoop=1;jettySize=auto;html=1;exitX=1;exitY=0.5;exitDx=0;exitDy=0;entryX=0;entryY=0.5;entryDx=0;entryDy=0;" edge="1" parent="1" source="sqEDO2N8_h3xxqRRrdPc-16" target="sqEDO2N8_h3xxqRRrdPc-20">
          <mxGeometry relative="1" as="geometry" />
        </mxCell>
        <mxCell id="sqEDO2N8_h3xxqRRrdPc-16" value="" style="rounded=1;whiteSpace=wrap;html=1;fillColor=#CC0066;strokeColor=#CC0066;" vertex="1" parent="1">
          <mxGeometry x="580" y="720" width="10" height="40" as="geometry" />
        </mxCell>
        <mxCell id="sqEDO2N8_h3xxqRRrdPc-17" style="edgeStyle=orthogonalEdgeStyle;rounded=0;orthogonalLoop=1;jettySize=auto;html=1;exitX=1;exitY=0.5;exitDx=0;exitDy=0;entryX=0;entryY=0.5;entryDx=0;entryDy=0;" edge="1" parent="1" source="sqEDO2N8_h3xxqRRrdPc-18" target="sqEDO2N8_h3xxqRRrdPc-21">
          <mxGeometry relative="1" as="geometry" />
        </mxCell>
        <mxCell id="sqEDO2N8_h3xxqRRrdPc-18" value="" style="rounded=1;whiteSpace=wrap;html=1;fillColor=#FFD966;strokeColor=#FFD966;" vertex="1" parent="1">
          <mxGeometry x="580" y="800" width="10" height="40" as="geometry" />
        </mxCell>
        <mxCell id="sqEDO2N8_h3xxqRRrdPc-19" value="Coordinate KNN Regression Model" style="rounded=1;whiteSpace=wrap;html=1;strokeColor=#0000CC;" vertex="1" parent="1">
          <mxGeometry x="630" y="630" width="120" height="60" as="geometry" />
        </mxCell>
        <mxCell id="sqEDO2N8_h3xxqRRrdPc-20" value="Fine-tuned DistilBERT Regression Model" style="rounded=1;whiteSpace=wrap;html=1;strokeColor=#CC0066;" vertex="1" parent="1">
          <mxGeometry x="630" y="710" width="120" height="60" as="geometry" />
        </mxCell>
        <mxCell id="sqEDO2N8_h3xxqRRrdPc-21" value="Modified Pretrained ResNet18 Model" style="rounded=1;whiteSpace=wrap;html=1;strokeColor=#FFD966;" vertex="1" parent="1">
          <mxGeometry x="630" y="790" width="120" height="60" as="geometry" />
        </mxCell>
        <mxCell id="sqEDO2N8_h3xxqRRrdPc-22" style="edgeStyle=orthogonalEdgeStyle;rounded=0;orthogonalLoop=1;jettySize=auto;html=1;exitX=1;exitY=0.5;exitDx=0;exitDy=0;entryX=0;entryY=0.5;entryDx=0;entryDy=0;" edge="1" parent="1" target="sqEDO2N8_h3xxqRRrdPc-26">
          <mxGeometry relative="1" as="geometry">
            <mxPoint x="750" y="660" as="sourcePoint" />
          </mxGeometry>
        </mxCell>
        <mxCell id="sqEDO2N8_h3xxqRRrdPc-23" style="edgeStyle=orthogonalEdgeStyle;rounded=0;orthogonalLoop=1;jettySize=auto;html=1;exitX=1;exitY=0.5;exitDx=0;exitDy=0;entryX=0;entryY=0.5;entryDx=0;entryDy=0;" edge="1" parent="1" target="sqEDO2N8_h3xxqRRrdPc-28">
          <mxGeometry relative="1" as="geometry">
            <mxPoint x="750" y="740" as="sourcePoint" />
          </mxGeometry>
        </mxCell>
        <mxCell id="sqEDO2N8_h3xxqRRrdPc-24" style="edgeStyle=orthogonalEdgeStyle;rounded=0;orthogonalLoop=1;jettySize=auto;html=1;exitX=1;exitY=0.5;exitDx=0;exitDy=0;entryX=0;entryY=0.5;entryDx=0;entryDy=0;" edge="1" parent="1" target="sqEDO2N8_h3xxqRRrdPc-30">
          <mxGeometry relative="1" as="geometry">
            <mxPoint x="750" y="820" as="sourcePoint" />
          </mxGeometry>
        </mxCell>
        <mxCell id="sqEDO2N8_h3xxqRRrdPc-25" style="edgeStyle=orthogonalEdgeStyle;rounded=0;orthogonalLoop=1;jettySize=auto;html=1;exitX=1;exitY=0.5;exitDx=0;exitDy=0;entryX=0;entryY=0.5;entryDx=0;entryDy=0;" edge="1" parent="1" source="sqEDO2N8_h3xxqRRrdPc-26">
          <mxGeometry relative="1" as="geometry">
            <mxPoint x="840" y="660" as="targetPoint" />
          </mxGeometry>
        </mxCell>
        <mxCell id="sqEDO2N8_h3xxqRRrdPc-26" value="" style="rounded=1;whiteSpace=wrap;html=1;strokeColor=#0000CC;fillColor=#0000CC;" vertex="1" parent="1">
          <mxGeometry x="790" y="640" width="10" height="40" as="geometry" />
        </mxCell>
        <mxCell id="sqEDO2N8_h3xxqRRrdPc-27" style="edgeStyle=orthogonalEdgeStyle;rounded=0;orthogonalLoop=1;jettySize=auto;html=1;exitX=1;exitY=0.5;exitDx=0;exitDy=0;entryX=0;entryY=0.5;entryDx=0;entryDy=0;" edge="1" parent="1" source="sqEDO2N8_h3xxqRRrdPc-28">
          <mxGeometry relative="1" as="geometry">
            <mxPoint x="840" y="740" as="targetPoint" />
          </mxGeometry>
        </mxCell>
        <mxCell id="sqEDO2N8_h3xxqRRrdPc-28" value="" style="rounded=1;whiteSpace=wrap;html=1;fillColor=#CC0066;strokeColor=#CC0066;" vertex="1" parent="1">
          <mxGeometry x="790" y="720" width="10" height="40" as="geometry" />
        </mxCell>
        <mxCell id="sqEDO2N8_h3xxqRRrdPc-29" style="edgeStyle=orthogonalEdgeStyle;rounded=0;orthogonalLoop=1;jettySize=auto;html=1;exitX=1;exitY=0.5;exitDx=0;exitDy=0;entryX=0;entryY=0.5;entryDx=0;entryDy=0;" edge="1" parent="1" source="sqEDO2N8_h3xxqRRrdPc-30">
          <mxGeometry relative="1" as="geometry">
            <mxPoint x="840" y="820" as="targetPoint" />
          </mxGeometry>
        </mxCell>
        <mxCell id="sqEDO2N8_h3xxqRRrdPc-30" value="" style="rounded=1;whiteSpace=wrap;html=1;fillColor=#FFD966;strokeColor=#FFD966;" vertex="1" parent="1">
          <mxGeometry x="790" y="800" width="10" height="40" as="geometry" />
        </mxCell>
        <mxCell id="sqEDO2N8_h3xxqRRrdPc-31" value="Image Embedding" style="rounded=0;whiteSpace=wrap;html=1;rotation=-90;strokeColor=#FFD966;" vertex="1" parent="1">
          <mxGeometry x="821" y="810.5" width="79" height="39.5" as="geometry" />
        </mxCell>
        <mxCell id="sqEDO2N8_h3xxqRRrdPc-32" style="edgeStyle=orthogonalEdgeStyle;rounded=0;orthogonalLoop=1;jettySize=auto;html=1;exitX=1;exitY=1;exitDx=0;exitDy=0;" edge="1" parent="1" source="sqEDO2N8_h3xxqRRrdPc-33">
          <mxGeometry relative="1" as="geometry">
            <mxPoint x="920" y="709.8235294117646" as="targetPoint" />
          </mxGeometry>
        </mxCell>
        <mxCell id="sqEDO2N8_h3xxqRRrdPc-33" value="Textual Embedding" style="rounded=0;whiteSpace=wrap;html=1;rotation=-90;strokeColor=#CC0066;" vertex="1" parent="1">
          <mxGeometry x="821" y="730" width="79" height="39.5" as="geometry" />
        </mxCell>
        <mxCell id="sqEDO2N8_h3xxqRRrdPc-34" value="GSNE Embedding" style="rounded=0;whiteSpace=wrap;html=1;rotation=-90;strokeColor=#0000CC;" vertex="1" parent="1">
          <mxGeometry x="821" y="650.5" width="79" height="39.5" as="geometry" />
        </mxCell>
        <mxCell id="sqEDO2N8_h3xxqRRrdPc-35" value="Raw&lt;div&gt;&amp;nbsp;Features&lt;/div&gt;" style="rounded=0;whiteSpace=wrap;html=1;rotation=-90;strokeColor=#00CC00;" vertex="1" parent="1">
          <mxGeometry x="821" y="570" width="79" height="39.5" as="geometry" />
        </mxCell>
        <mxCell id="sqEDO2N8_h3xxqRRrdPc-36" style="edgeStyle=orthogonalEdgeStyle;rounded=0;orthogonalLoop=1;jettySize=auto;html=1;exitX=1;exitY=0.5;exitDx=0;exitDy=0;" edge="1" parent="1" source="sqEDO2N8_h3xxqRRrdPc-37">
          <mxGeometry relative="1" as="geometry">
            <mxPoint x="1070" y="709.8235294117646" as="targetPoint" />
          </mxGeometry>
        </mxCell>
        <mxCell id="sqEDO2N8_h3xxqRRrdPc-37" value="Downstream Regression Model" style="rounded=1;whiteSpace=wrap;html=1;" vertex="1" parent="1">
          <mxGeometry x="920" y="680" width="120" height="60" as="geometry" />
        </mxCell>
        <mxCell id="sqEDO2N8_h3xxqRRrdPc-38" value="Price" style="rounded=1;whiteSpace=wrap;html=1;" vertex="1" parent="1">
          <mxGeometry x="1074" y="695" width="56" height="30" as="geometry" />
        </mxCell>
        <mxCell id="sqEDO2N8_h3xxqRRrdPc-41" style="edgeStyle=orthogonalEdgeStyle;rounded=0;orthogonalLoop=1;jettySize=auto;html=1;exitX=1;exitY=0.5;exitDx=0;exitDy=0;" edge="1" parent="1" source="sqEDO2N8_h3xxqRRrdPc-40">
          <mxGeometry relative="1" as="geometry">
            <mxPoint x="840" y="580" as="targetPoint" />
          </mxGeometry>
        </mxCell>
        <mxCell id="sqEDO2N8_h3xxqRRrdPc-40" value="" style="rounded=1;whiteSpace=wrap;html=1;strokeColor=#00CC00;fillColor=#00CC00;" vertex="1" parent="1">
          <mxGeometry x="790" y="560" width="10" height="40" as="geometry" />
        </mxCell>
      </root>
    </mxGraphModel>
  </diagram>
  <diagram id="c1Et2jCJB6fabKLeKif1" name="Textual Model">
    <mxGraphModel dx="951" dy="572" grid="1" gridSize="10" guides="1" tooltips="1" connect="1" arrows="1" fold="1" page="1" pageScale="1" pageWidth="850" pageHeight="1100" math="0" shadow="0">
      <root>
        <mxCell id="0" />
        <mxCell id="1" parent="0" />
      </root>
    </mxGraphModel>
  </diagram>
</mxfile>
